# xmcd CD database file
#
# Track frame offsets:
#	150
#	18467
#	37007
#	52807
#	71792
#	90925
#	109700
#	132115
#	153340
#	174320
#	193827
#	212872
#	227827
#	245617
#	264282
#	291630
#
# Disc length: 4162 seconds
#
# Revision: 0
# Processed by: cddbd v1.5PL3 Copyright (c) Steve Scherf et al.
# Submitted via: CDex 1.51
#
DISCID=e2104010
DTITLE=オムニバス - VELFARRE J-POP NIGHT presents DANCE with YOU
DYEAR=1997
DGENRE=JPop
TTITLE0=勝手にしやがれ
TTITLE1=S･O･S
TTITLE2=ウォンテッド （指名手配）
TTITLE3=カルメン '77
TTITLE4=個人授業
TTITLE5=UFO
TTITLE6=たそがれマイ･ラブ
TTITLE7=サウスポー
TTITLE8=白い蝶のサンバ
TTITLE9=どうにもとまらない
TTITLE10=狂わせたいの
TTITLE11=わたしの青い鳥
TTITLE12=ロマンス
TTITLE13=シンデレラ・ハネムーン
TTITLE14=青春時代
TTITLE15=CD-EXTRA
EXTD=YEAR: 1997
EXTT0=
EXTT1=
EXTT2=
EXTT3=
EXTT4=
EXTT5=
EXTT6=
EXTT7=
EXTT8=
EXTT9=
EXTT10=
EXTT11=
EXTT12=
EXTT13=
EXTT14=
EXTT15=
PLAYORDER=
